<?xml version="1.0" encoding="UTF-8"?>
<svg id="uuid-b66f9fef-dce7-4272-a607-0909e08f308d" data-name="Capa 1" xmlns="http://www.w3.org/2000/svg" viewBox="0 0 2160 959">
  <defs>
    <style>
      .uuid-d1013e9a-f5bb-442e-a345-ede93935a9d3 {
        fill: #f5f2e7;
      }
    </style>
  </defs>
  <path class="uuid-d1013e9a-f5bb-442e-a345-ede93935a9d3" d="M0,947.87c0-12.85,10.48-23.33,23.44-23.33h0c9.72,0,18.58-1.84,26.35-5.4,7.78-3.56,15.01-8.32,21.49-14.15l14.69-15.66c12.96-12.96,19.55-28.94,19.55-47.84v-434.27c0-18.9-6.48-34.78-19.55-47.84l-14.69-15.66c-6.48-5.83-13.72-10.58-21.49-14.15-7.78-3.56-16.63-5.4-26.35-5.4h0c-12.96.22-23.44-10.37-23.44-23.22v-10.69h267.41v551.34c0,18.9,6.48,34.78,19.55,47.84l14.69,15.66c7.13,7.13,15.12,12.2,23.87,15.12s21.6,4.43,38.56,4.43h0c15.66,0,28.3,12.64,28.3,28.3v5.83H0v-10.91ZM245.92,837.6v-42.01c0-18.25,4.75-34.02,14.15-47.3,9.4-13.28,20.95-24.52,34.67-33.7,13.72-9.07,32.18-20.2,55.62-33.16,32.51-16.96,58.86-32.72,79.06-47.3,20.2-14.69,37.37-34.67,51.73-60.05,14.26-25.38,21.49-56.92,21.49-94.61,0-41.04-6.16-72.25-18.58-93.64-12.42-21.49-29.48-35.96-51.19-43.42-21.82-7.45-49.25-11.23-82.51-11.23h-131.76v-41.04h164.92c60.48,0,112.43,5.18,155.63,15.66,43.31,10.37,77.76,29.48,103.46,57.13,25.7,27.65,38.56,66.85,38.56,117.61,0,44.93-12.1,81.32-36.07,109.3-24.08,27.97-53.03,49.46-86.83,64.37-33.8,15.01-77.44,30.24-130.79,45.9-36.4,11.02-65.34,20.84-86.83,29.27-21.49,8.42-38.99,18.68-52.7,30.78-13.72,12.1-20.52,26.78-20.52,44.39v33.16h-21.49v-.11ZM432.32,682.52v11.66c21.49,10.37,45.36,18.58,71.71,24.41,26.35,5.83,51.19,9.72,74.63,11.66l70.31,106.38c19.55,30.56,38.66,52.81,57.56,66.85,18.9,14.04,36.4,20.95,52.7,20.95h14.69v34.13h-230.26l-178.63-265.46,67.28-10.69v.11Z"/>
  <path class="uuid-d1013e9a-f5bb-442e-a345-ede93935a9d3" d="M559.22,924.54h11.66c22.79,0,45.25-11.88,67.28-35.64,22.14-23.76,43.96-59.08,65.34-105.84l202.93-457.7,9.72,71.28-139.54,320.11c-14.36,33.8-20.84,66.74-19.55,98.6,1.3,31.86,9.61,58.1,24.84,78.52,15.23,20.52,34.67,30.78,58.1,30.78h0c10.8,0,19.55,8.75,19.55,19.55v14.69h-300.56v-34.13l.22-.22ZM790.45,921.52c-13.72-7.78-23.87-16.96-30.78-27.32-6.8-10.37-10.26-18.9-10.26-25.38,0-12.31,5.4-23.54,16.09-33.7,10.69-10.04,27.43-22.57,50.22-37.58,26.68-17.6,48.28-33.7,64.91-48.28,16.63-14.58,31.21-34.02,43.96-58.1,12.64-24.08,19.01-52.06,19.01-83.92,0-50.11-15.34-108.97-45.9-176.58l32.18-9.72c19.55,42.98,33.8,79.38,42.98,109.3,9.07,29.92,13.72,56.92,13.72,81,0,36.4-7.34,67.28-21.92,92.66-14.58,25.38-31.75,45.36-51.19,60.05-19.44,14.69-44.28,30.46-74.2,47.3-23.44,13.07-40.18,23.44-50.22,31.21-10.04,7.78-15.12,16.96-15.12,27.32,0,5.83,3.13,13.18,9.29,21.92,6.16,8.75,14.26,16.42,24.41,22.9,10.04,6.48,20.95,9.72,32.72,9.72v8.75c-19.55,0-36.07-3.89-49.79-11.66l-.11.11ZM773.82,290.15h174.96c37.91,0,72.25,22.03,88.13,56.48l223.88,488.05c13.72,28.62,28.84,50.76,45.36,66.31s36.61,23.44,60.05,23.44h11.66v34.13h-371.84v-15.66c0-10.26,8.32-18.58,18.58-18.58h0c11.02,0,22.25-4.75,33.7-14.15,11.34-9.4,18.9-22.14,22.46-38.02,3.56-15.98.76-33.7-8.32-53.14l-209.84-459.65-13.72-15.66c-7.13-5.83-14.47-10.58-21.92-14.15s-16.09-5.4-25.81-5.4h0c-15.12,0-27.32-12.2-27.32-27.32v-6.8.11Z"/>
  <path class="uuid-d1013e9a-f5bb-442e-a345-ede93935a9d3" d="M1191.56,924.54h23.44c9.72,0,18.58-1.84,26.35-5.4s15.01-8.32,21.49-14.15l14.69-15.66c12.96-12.96,19.55-28.94,19.55-47.84v-434.27c0-18.9-6.48-34.78-19.55-47.84l-14.69-15.66c-6.48-5.83-13.72-10.58-21.49-14.15-7.78-3.56-16.63-5.4-26.35-5.4h0c-12.96,0-23.44-10.48-23.44-23.44v-10.69h372.82v10.69c0,12.96-10.48,23.44-23.44,23.44h0c-9.72,0-18.58,1.84-26.35,5.4s-15.01,8.32-21.49,14.15l-14.69,15.66c-13.07,13.07-19.55,28.94-19.55,47.84v434.27c0,18.9,6.48,34.78,19.55,47.84l14.69,15.66c6.48,5.83,13.72,10.58,21.49,14.15,7.78,3.56,16.63,5.4,26.35,5.4h23.44v34.13h-372.82v-34.13ZM1311.55,148.24c15.66-16.63,31.21-34.67,46.87-54.11,16.31-19.55,30.46-35.64,42.44-48.28,11.99-12.64,24.19-23.54,36.61-32.72,16.31-10.37,34.02-14.69,53.14-12.64,19.22,1.94,34.99,11.66,47.3,29.27,12.31,16.96,16.31,34.45,11.66,52.7-4.54,18.25-15.66,32.51-33.16,42.98-9.72,6.48-22.14,12.53-37.04,18.04-15.01,5.51-34.45,11.88-58.54,19.01-24.08,8.42-48.17,17.71-72.25,27.86-17.93,7.45-34.67,15.98-50.44,25.38-9.07,5.51-20.95,2.59-26.78-6.26h0c-5.51-8.32-3.89-19.44,3.56-25.92,12.74-11.12,24.84-22.79,36.5-35.1l.11-.22Z"/>
  <path class="uuid-d1013e9a-f5bb-442e-a345-ede93935a9d3" d="M1560.82,929.62l422.6-632.34,22.46,31.21h-124.96c-42.34,0-79.49,6.16-111.78,18.58-32.18,12.42-60.16,31.21-83.92,56.59-18.68,19.98-35.42,44.5-50.22,73.66-7.67,15.12-23.11,24.95-40.18,24.95h-.86v-211.79h566.03c0,19.12-5.62,37.8-16.2,53.68l-401.44,604.04-24.41-27.32h153.25c41.04,0,78.52-8.96,112.75-26.78,34.13-17.93,63.29-41.58,87.37-71.28,18.14-22.25,32.94-46.01,44.39-71.06,6.91-15.12,21.82-25.06,38.56-25.06h0v232.31h-593.35v-29.27l-.11-.11Z"/>
</svg>